<svg width="300" height="140" viewBox="0 0 300 140" xmlns="http://www.w3.org/2000/svg">
  <g fill="none" stroke="white" stroke-width="5" stroke-linecap="round" stroke-linejoin="round">
    <path d="
M150 95
C140 88, 138 78, 145 70
C155 58, 165 52, 160 42
" />
    <path d="
M150 95
C160 88, 162 78, 155 70
C145 58, 135 52, 140 42
" />
<path d="
M150 98
C142 104, 142 112, 150 118
C158 112, 158 104, 150 98
" />


<path d="
M120 97
A30 30 0 0 0 180 97
" />
<path d="
M162 62
C163 73, 182 67, 182 48
C182 30, 164 23, 150 12
C136 23, 118 30, 118 48
C118 67, 137 73, 138 62
" />






  </g>
</svg>
