<svg width="1200" height="480" viewBox="0 0 1200 480"
     xmlns="http://www.w3.org/2000/svg" version="1.1"
     xmlns:xlink="http://www.w3.org/1999/xlink">

  <g fill="none" stroke="white" stroke-linecap="round" stroke-linejoin="round">
    <g stroke-width="7">
      <path d="
M600 380
C570 360, 560 330, 580 300
C610 260, 650 240, 630 210
C600 170, 550 150, 560 110
C570 80, 600 60, 620 40
" />
      <path d="
M600 380
C630 360, 640 330, 620 300
C590 260, 550 240, 570 210
C600 170, 650 150, 640 110
C630 80, 600 60, 580 40
" />
            <path d="M600 380 L600 410" />
    </g>

    <g stroke-width="3">
      <circle cx="600" cy="313" r="5" />
            <ellipse cx="600" cy="344" rx="10" ry="25" />
       <path d="M600 240 L600 210" />  
      <path d="M610 225 L590 225" />
      <path d="
M570 370
C582 388, 592 396, 600 398
C608 396, 618 388, 630 370
" />
    </g>

    <!-- LUNULA / BLOK GEOMETRYCZNY -->
    <g stroke-width="5">
      <path d="
M576 122
A24 24 0 0 0 624 122

M576 122
A24 24 0 0 1 583.2 105.2

M616.8 105.2
A24 24 0 0 1 624 122

M584 116
A16 16 0 0 0 616 116

M583.2 105.2 L584 116
M616.8 105.2 L616 116
" />
    </g>

    <!-- DUŻY PIK / CIAŁO -->
    <g stroke-width="8">
      <path d="
M582 278
C572 246, 524 264, 524 318
C524 372, 566 390, 600 424
C634 390, 676 372, 676 318
C676 264, 628 246, 618 278
" />
    </g>

    <!-- BOCZNE FORMY -->
    <g stroke-width="4">
      <path d="
M664 225
C651 229, 658 248, 680 248
C702 248, 709 232, 722 218
C709 204, 702 188, 680 188
C658 188, 651 207, 664 211
" />
      <path d="
M536 225
C549 229, 542 248, 520 248
C498 248, 491 232, 478 218
C491 204, 498 188, 520 188
C542 188, 549 207, 536 211
" />
<path d="
M736 223
C727 226, 732 239, 747 239
C762 239, 767 228, 776 219
C767 209, 762 198, 747 198
C732 198, 727 211, 736 214
" />
<path d="
M464 223
C473 226, 468 239, 453 239
C438 239, 433 228, 424 219
C433 209, 438 198, 453 198
C468 198, 473 211, 464 214
" />


    </g>

    <!-- DOLNE MAŁE KSZTAŁTY -->
    <g stroke-width="5">
      <path d="
M550 80
C535 80, 522 100, 522 120
C522 140, 535 160, 550 160
C542 146, 540 132, 540 120
C540 108, 542 94, 550 80
" />
      <path d="
M650 80
C665 80, 678 100, 678 120
C678 140, 665 160, 650 160
C658 146, 660 132, 660 120
C660 108, 658 94, 650 80
" />
    </g>

  </g>
</svg>
