<svg width="1200" height="480" viewBox="0 0 1200 480" xmlns="http://www.w3.org/2000/svg">
  <g fill="none" stroke="white" stroke-linecap="round" stroke-linejoin="round">

    <!-- RDZEŃ -->
    <g stroke-width="11">

      <path d="M600 174
C560 214, 500 258, 500 306
C500 350, 540 372, 600 378
C660 372, 700 350, 700 306
C700 258, 640 214, 600 174 Z
M600 378
C580 402, 560 420, 548 432
C570 426, 590 424, 600 424
C610 424, 630 426, 652 432
C640 420, 620 402, 600 378 Z" />
    </g>

    <!-- AKCENTY / NACIECIA -->
    <g stroke-width="5">
      <circle cx="600" cy="86" r="7" />
      <path d="M600 118 C580 136, 580 150, 600 168 C620 150, 620 136, 600 118 Z" />
      <circle cx="560" cy="175" r="7" />
      <circle cx="640" cy="175" r="7" />
      <path d="M600 378
C584 366, 570 354, 560 342
C574 348, 590 350, 600 348
C610 350, 626 348, 640 342
C630 354, 616 366, 600 378 Z" />
      <circle cx="600" cy="330" r="7" />
      <circle cx="600" cy="300" r="7" />
            <path d="M310 290
C322 274, 334 260, 346 250
C340 264, 338 280, 338 290
C338 300, 340 316, 346 330
C334 320, 322 306, 310 290 Z" />
      <path d="M890 290
C878 274, 866 260, 854 250
C860 264, 862 280, 862 290
C862 300, 860 316, 854 330
C866 320, 878 306, 890 290 Z" />
    </g>

    <!-- ELEMENTY AGRESJI -->
    <g stroke-width="8">
            <path d="M600 118 C584 96, 552 98, 552 124 C552 146, 578 160, 600 174 C622 160, 648 146, 648 124 C648 98, 616 96, 600 118 Z" />
      <path d="M485 182
C416 182, 359 228, 359 290
C359 352, 416 398, 485 398
C462 380, 422 348, 416 290
C422 232, 462 200, 485 182 Z" />
      <path d="M715 182
C784 182, 841 228, 841 290
C841 352, 784 398, 715 398
C738 380, 778 348, 784 290
C778 232, 738 200, 715 182 Z" />

    </g>

  </g>
</svg>
