<svg width="300" height="120" viewBox="0 0 300 120" xmlns="http://www.w3.org/2000/svg">
  <g fill="none" stroke="white" stroke-width="6" stroke-linecap="round" stroke-linejoin="round">
    <path d="M150 18
C132 40, 110 62, 110 80
C110 96, 130 104, 150 108
C170 104, 190 96, 190 80
C190 62, 168 40, 150 18 Z" />
    <path d="M150 108
C142 114, 136 118, 130 120
C142 118, 146 118, 150 118
C154 118, 158 118, 170 120
C164 118, 158 114, 150 108 Z" />

    <path d="M150 44
C144 50, 144 60, 150 66
C156 60, 156 50, 150 44 Z" />

<path d="M103 44
C89 44, 81 60, 81 78
C81 96, 89 112, 103 112
C97 98, 95 88, 95 78
C95 68, 97 56, 103 44 Z" />

<path d="M197 44
C211 44, 219 60, 219 78
C219 96, 211 112, 197 112
C203 98, 205 88, 205 78
C205 68, 203 56, 197 44 Z" />

  </g>
</svg>
