<svg width="1200" height="480" viewBox="0 0 1200 480" xmlns="http://www.w3.org/2000/svg">
  <g fill="none" stroke="white" stroke-linecap="round" stroke-linejoin="round">

    <g stroke-width="6">
      <path d="M600 46 C600 70, 600 96, 600 118 C600 132, 600 150, 600 168 C600 182, 600 196, 600 210 C600 230, 600 252, 600 276 C600 300, 600 334, 600 378 C600 400, 600 416, 600 432" />
      <path d="M560 76 L640 76" />
    </g>

    <g stroke-width="9">
      <path d="M600 118 C584 96, 552 98, 552 124 C552 146, 578 160, 600 174 C622 160, 648 146, 648 124 C648 98, 616 96, 600 118 Z" />
      <path d="M600 174 C530 124, 462 158, 470 232 C478 304, 546 332, 600 378 C654 332, 722 304, 730 232 C738 158, 670 124, 600 174 Z" />
      <path d="M600 220 C560 246, 560 274, 600 300 C640 274, 640 246, 600 220 Z" />
      <path d="M600 432 C584 420, 570 408, 560 396 C574 402, 590 404, 600 402 C610 404, 626 402, 640 396 C630 408, 616 420, 600 432 Z" />
    </g>

    <g stroke-width="6">

      <circle cx="600" cy="214" r="5" />
      <circle cx="600" cy="336" r="9" />
            <path d="M600 378 C588 356, 566 344, 544 336 C566 324, 588 312, 600 292 C612 312, 634 324, 656 336 C634 344, 612 356, 600 378 Z" />
    </g>

    <g stroke-width="7">
      <path d="M470 232 C340 150, 180 160, 120 220 C220 200, 340 220, 430 260 C350 250, 280 300, 260 360 C320 330, 400 330, 470 290 C440 270, 430 250, 470 232" />
      <path d="M730 232 C860 150, 1020 160, 1080 220 C980 200, 860 220, 770 260 C850 250, 920 300, 940 360 C880 330, 800 330, 730 290 C760 270, 770 250, 730 232" />
    </g>

    <g stroke-width="5">
      <path d="M430 260 C390 240, 360 210, 350 190" />
      <path d="M770 260 C810 240, 840 210, 850 190" />
    </g>

  </g>
</svg>
